<svg width="176" height="148" viewBox="0 0 176 148" fill="none" xmlns="http://www.w3.org/2000/svg">
<g clip-path="url(#clip0_419_4)">
<path fill-rule="evenodd" clip-rule="evenodd" d="M122.802 28.5379C92.574 4.97181 42.6576 1.39215 8.35254 41.4645L0 34.4046C38.6802 -10.9378 95.4576 -6.76152 129.564 19.8871C146.667 33.3108 158.499 52.6012 159.295 74.5763C159.991 93.7673 152.334 114.151 133.939 133.641L170.829 136.027C173.812 136.226 176.199 138.811 176 141.894C175.801 144.877 173.216 147.263 170.133 147.064L120.714 143.982C117.731 143.783 115.345 141.198 115.544 138.115L118.626 88.6961C118.825 85.713 121.41 83.3266 124.493 83.5255C127.476 83.7243 129.862 86.3096 129.663 89.3921L127.476 124.493C143.087 107.29 148.854 90.287 148.258 75.0735C147.661 56.8769 137.916 40.3707 122.802 28.5379Z" fill="black"/>
</g>
<defs>
<clipPath id="clip0_419_4">
<rect width="176" height="147.164" fill="white"/>
</clipPath>
</defs>
</svg>
