<svg width="292" height="362" viewBox="0 0 292 362" fill="none" xmlns="http://www.w3.org/2000/svg">
<path d="M176.616 343.961C175.901 346.628 177.484 349.37 180.152 350.084L223.618 361.731C226.286 362.446 229.027 360.863 229.742 358.196C230.457 355.528 228.874 352.787 226.207 352.072L187.57 341.719L197.922 303.082C198.637 300.415 197.054 297.673 194.387 296.958C191.719 296.244 188.978 297.827 188.263 300.494L176.616 343.961ZM5.04652 39.7221C98.7802 -14.3951 213.105 10.0899 260.871 92.8233L269.531 87.8233C218.494 -0.575743 97.6299 -25.2779 0.046524 31.0619L5.04652 39.7221ZM260.871 92.8233C308.637 175.557 272.679 286.807 178.946 340.925L183.946 349.585C281.529 293.245 320.569 176.222 269.531 87.8233L260.871 92.8233Z" fill="white"/>
</svg>
